<svg xmlns="http://www.w3.org/2000/svg" xmlns:xlink="http://www.w3.org/1999/xlink" width="500" zoomAndPan="magnify" viewBox="0 0 375 374.999991" height="500" preserveAspectRatio="xMidYMid meet" version="1.0"><defs><g/></defs><g fill="#f1bd1f" fill-opacity="1"><g transform="translate(92.202964, 236.637411)"><g><path d="M 161.65625 -31.46875 C 155.925781 -22.28125 150.09375 -15.320312 144.15625 -10.59375 C 138.21875 -5.875 131.300781 -2.300781 123.40625 0.125 C 115.519531 2.550781 106.25 3.765625 95.59375 3.765625 C 68.625 3.765625 48.742188 -4.015625 35.953125 -19.578125 C 23.171875 -35.140625 16.78125 -58.613281 16.78125 -90 C 16.78125 -121.289062 23.128906 -144.738281 35.828125 -160.34375 C 48.523438 -175.957031 68.097656 -183.765625 94.546875 -183.765625 C 105.035156 -183.765625 114.398438 -182.460938 122.640625 -179.859375 C 130.878906 -177.253906 137.835938 -173.675781 143.515625 -169.125 C 149.191406 -164.570312 154.367188 -158.179688 159.046875 -149.953125 L 139.28125 -136.9375 C 135.46875 -143.351562 131.609375 -148.226562 127.703125 -151.5625 C 123.804688 -154.90625 119.125 -157.550781 113.65625 -159.5 C 108.195312 -161.457031 101.828125 -162.4375 94.546875 -162.4375 C 76.515625 -162.4375 63.269531 -156.429688 54.8125 -144.421875 C 46.363281 -132.410156 42.140625 -114.269531 42.140625 -90 C 42.140625 -66.0625 46.300781 -48.003906 54.625 -35.828125 C 62.945312 -23.648438 76.34375 -17.5625 94.8125 -17.5625 C 105.039062 -17.5625 113.925781 -19.578125 121.46875 -23.609375 C 129.007812 -27.640625 135.769531 -34.597656 141.75 -44.484375 Z M 161.65625 -31.46875 "/></g></g></g><g fill="#f1bd1f" fill-opacity="1"><g transform="translate(76.754964, 302.521082)"><g><path d="M 173.09375 0 L 149.078125 0 L 110.640625 -120.5625 L 72.21875 0 L 48.640625 0 L 9.453125 -157.484375 L 36.328125 -157.484375 L 63.0625 -37.53125 L 100.59375 -157.484375 L 122.0625 -157.484375 L 160.484375 -37.53125 L 186.015625 -157.484375 L 211.828125 -157.484375 Z M 173.09375 0 "/></g></g></g></svg>