<svg xmlns="http://www.w3.org/2000/svg" xmlns:xlink="http://www.w3.org/1999/xlink" width="500" zoomAndPan="magnify" viewBox="0 0 375 374.999991" height="500" preserveAspectRatio="xMidYMid meet" version="1.0"><defs><g/></defs><g fill="#f1bd1f" fill-opacity="1"><g transform="translate(15.572588, 196.075132)"><g><path d="M 87.8125 -17.09375 C 84.695312 -12.101562 81.523438 -8.320312 78.296875 -5.75 C 75.078125 -3.1875 71.320312 -1.25 67.03125 0.0625 C 62.75 1.382812 57.710938 2.046875 51.921875 2.046875 C 37.273438 2.046875 26.476562 -2.175781 19.53125 -10.625 C 12.582031 -19.082031 9.109375 -31.835938 9.109375 -48.890625 C 9.109375 -65.890625 12.554688 -78.625 19.453125 -87.09375 C 26.359375 -95.570312 36.992188 -99.8125 51.359375 -99.8125 C 57.054688 -99.8125 62.140625 -99.101562 66.609375 -97.6875 C 71.085938 -96.28125 74.867188 -94.335938 77.953125 -91.859375 C 81.035156 -89.390625 83.847656 -85.921875 86.390625 -81.453125 L 75.65625 -74.390625 C 73.582031 -77.867188 71.484375 -80.515625 69.359375 -82.328125 C 67.242188 -84.140625 64.703125 -85.578125 61.734375 -86.640625 C 58.773438 -87.703125 55.316406 -88.234375 51.359375 -88.234375 C 41.554688 -88.234375 34.359375 -84.96875 29.765625 -78.4375 C 25.179688 -71.914062 22.890625 -62.066406 22.890625 -48.890625 C 22.890625 -35.890625 25.148438 -26.078125 29.671875 -19.453125 C 34.191406 -12.835938 41.46875 -9.53125 51.5 -9.53125 C 57.050781 -9.53125 61.875 -10.625 65.96875 -12.8125 C 70.070312 -15.007812 73.75 -18.789062 77 -24.15625 Z M 87.8125 -17.09375 "/></g></g></g><g fill="#f1bd1f" fill-opacity="1"><g transform="translate(7.18141, 231.862404)"><g><path d="M 94.03125 0 L 80.984375 0 L 60.109375 -65.484375 L 39.21875 0 L 26.421875 0 L 5.140625 -85.546875 L 19.734375 -85.546875 L 34.25 -20.390625 L 54.640625 -85.546875 L 66.296875 -85.546875 L 87.171875 -20.390625 L 101.046875 -85.546875 L 115.0625 -85.546875 Z M 94.03125 0 "/></g></g></g><g fill="#242a44" fill-opacity="1"><g transform="translate(132.984591, 157.25583)"><g><path d="M 18.09375 -3.25 C 17.25 -1.988281 16.210938 -1.0625 14.984375 -0.46875 C 13.765625 0.113281 12.265625 0.40625 10.484375 0.40625 C 4.398438 0.40625 1.359375 -3 1.359375 -9.8125 C 1.359375 -13.300781 2.128906 -15.878906 3.671875 -17.546875 C 5.210938 -19.210938 7.4375 -20.046875 10.34375 -20.046875 C 12.257812 -20.046875 13.820312 -19.71875 15.03125 -19.0625 C 16.238281 -18.414062 17.160156 -17.566406 17.796875 -16.515625 L 14.6875 -14.109375 C 14.238281 -14.796875 13.820312 -15.289062 13.4375 -15.59375 C 13.0625 -15.894531 12.632812 -16.117188 12.15625 -16.265625 C 11.675781 -16.421875 11.097656 -16.5 10.421875 -16.5 C 8.816406 -16.5 7.59375 -15.984375 6.75 -14.953125 C 5.90625 -13.929688 5.484375 -12.21875 5.484375 -9.8125 C 5.484375 -7.570312 5.878906 -5.898438 6.671875 -4.796875 C 7.460938 -3.691406 8.722656 -3.140625 10.453125 -3.140625 C 11.617188 -3.140625 12.523438 -3.359375 13.171875 -3.796875 C 13.816406 -4.242188 14.40625 -4.835938 14.9375 -5.578125 Z M 18.09375 -3.25 "/></g></g></g><g fill="#242a44" fill-opacity="1"><g transform="translate(151.887345, 157.25583)"><g><path d="M 0.390625 0 L 6.875 -19.625 L 12.078125 -19.625 L 18.59375 0 L 14.5 0 L 13.1875 -3.984375 L 5.625 -3.984375 L 4.359375 0 Z M 6.765625 -7.484375 L 12.0625 -7.484375 L 9.421875 -15.59375 Z M 6.765625 -7.484375 "/></g></g></g><g fill="#242a44" fill-opacity="1"><g transform="translate(170.846822, 157.25583)"><g><path d="M 13.15625 0 L 8.15625 -7.4375 L 6.125 -7.4375 L 6.125 0 L 2.125 0 L 2.125 -19.625 L 9.265625 -19.625 C 11.785156 -19.625 13.628906 -19.171875 14.796875 -18.265625 C 15.960938 -17.359375 16.546875 -15.867188 16.546875 -13.796875 C 16.546875 -12.128906 16.191406 -10.796875 15.484375 -9.796875 C 14.785156 -8.804688 13.789062 -8.175781 12.5 -7.90625 L 17.75 0 Z M 12.5 -13.625 C 12.5 -14.632812 12.242188 -15.304688 11.734375 -15.640625 C 11.234375 -15.984375 10.398438 -16.15625 9.234375 -16.15625 L 6.125 -16.15625 L 6.125 -10.921875 L 9.0625 -10.921875 C 9.957031 -10.921875 10.644531 -11.003906 11.125 -11.171875 C 11.613281 -11.347656 11.960938 -11.613281 12.171875 -11.96875 C 12.390625 -12.332031 12.5 -12.882812 12.5 -13.625 Z M 12.5 -13.625 "/></g></g></g><g fill="#242a44" fill-opacity="1"><g transform="translate(189.054726, 157.25583)"><g><path d="M 13.1875 0 L 6.046875 -14.03125 L 6.046875 0 L 2.125 0 L 2.125 -19.625 L 7.3125 -19.625 L 13.96875 -6.390625 L 13.96875 -19.625 L 17.90625 -19.625 L 17.90625 0 Z M 13.1875 0 "/></g></g></g><g fill="#242a44" fill-opacity="1"><g transform="translate(209.063568, 157.25583)"><g><path d="M 18.125 -9.8125 C 18.125 -6.394531 17.398438 -3.835938 15.953125 -2.140625 C 14.515625 -0.441406 12.421875 0.40625 9.671875 0.40625 C 6.765625 0.40625 4.628906 -0.488281 3.265625 -2.28125 C 1.898438 -4.070312 1.21875 -6.582031 1.21875 -9.8125 C 1.21875 -13.0625 1.898438 -15.578125 3.265625 -17.359375 C 4.628906 -19.148438 6.765625 -20.046875 9.671875 -20.046875 C 12.597656 -20.046875 14.738281 -19.148438 16.09375 -17.359375 C 17.445312 -15.578125 18.125 -13.0625 18.125 -9.8125 Z M 14 -9.8125 C 14 -12.132812 13.671875 -13.828125 13.015625 -14.890625 C 12.359375 -15.960938 11.242188 -16.5 9.671875 -16.5 C 8.097656 -16.5 6.984375 -15.960938 6.328125 -14.890625 C 5.671875 -13.828125 5.34375 -12.132812 5.34375 -9.8125 C 5.34375 -7.488281 5.675781 -5.796875 6.34375 -4.734375 C 7.007812 -3.671875 8.117188 -3.140625 9.671875 -3.140625 C 11.242188 -3.140625 12.359375 -3.671875 13.015625 -4.734375 C 13.671875 -5.796875 14 -7.488281 14 -9.8125 Z M 14 -9.8125 "/></g></g></g><g fill="#242a44" fill-opacity="1"><g transform="translate(228.405921, 157.25583)"><g><path d="M 12.75 0 L 7.3125 -8.203125 L 6.125 -6.828125 L 6.125 0 L 2.125 0 L 2.125 -19.625 L 6.125 -19.625 L 6.125 -11.96875 L 12.546875 -19.625 L 17.21875 -19.625 L 9.90625 -11.171875 L 17.75 0 Z M 12.75 0 "/></g></g></g><g fill="#242a44" fill-opacity="1"><g transform="translate(133.010778, 191.668084)"><g><path d="M 18.09375 -3.25 C 17.25 -1.988281 16.210938 -1.0625 14.984375 -0.46875 C 13.765625 0.113281 12.265625 0.40625 10.484375 0.40625 C 4.398438 0.40625 1.359375 -3 1.359375 -9.8125 C 1.359375 -13.300781 2.128906 -15.878906 3.671875 -17.546875 C 5.210938 -19.210938 7.4375 -20.046875 10.34375 -20.046875 C 12.257812 -20.046875 13.820312 -19.71875 15.03125 -19.0625 C 16.238281 -18.414062 17.160156 -17.566406 17.796875 -16.515625 L 14.6875 -14.109375 C 14.238281 -14.796875 13.820312 -15.289062 13.4375 -15.59375 C 13.0625 -15.894531 12.632812 -16.117188 12.15625 -16.265625 C 11.675781 -16.421875 11.097656 -16.5 10.421875 -16.5 C 8.816406 -16.5 7.59375 -15.984375 6.75 -14.953125 C 5.90625 -13.929688 5.484375 -12.21875 5.484375 -9.8125 C 5.484375 -7.570312 5.878906 -5.898438 6.671875 -4.796875 C 7.460938 -3.691406 8.722656 -3.140625 10.453125 -3.140625 C 11.617188 -3.140625 12.523438 -3.359375 13.171875 -3.796875 C 13.816406 -4.242188 14.40625 -4.835938 14.9375 -5.578125 Z M 18.09375 -3.25 "/></g></g></g><g fill="#242a44" fill-opacity="1"><g transform="translate(151.913533, 191.668084)"><g><path d="M 18.125 -9.8125 C 18.125 -6.394531 17.398438 -3.835938 15.953125 -2.140625 C 14.515625 -0.441406 12.421875 0.40625 9.671875 0.40625 C 6.765625 0.40625 4.628906 -0.488281 3.265625 -2.28125 C 1.898438 -4.070312 1.21875 -6.582031 1.21875 -9.8125 C 1.21875 -13.0625 1.898438 -15.578125 3.265625 -17.359375 C 4.628906 -19.148438 6.765625 -20.046875 9.671875 -20.046875 C 12.597656 -20.046875 14.738281 -19.148438 16.09375 -17.359375 C 17.445312 -15.578125 18.125 -13.0625 18.125 -9.8125 Z M 14 -9.8125 C 14 -12.132812 13.671875 -13.828125 13.015625 -14.890625 C 12.359375 -15.960938 11.242188 -16.5 9.671875 -16.5 C 8.097656 -16.5 6.984375 -15.960938 6.328125 -14.890625 C 5.671875 -13.828125 5.34375 -12.132812 5.34375 -9.8125 C 5.34375 -7.488281 5.675781 -5.796875 6.34375 -4.734375 C 7.007812 -3.671875 8.117188 -3.140625 9.671875 -3.140625 C 11.242188 -3.140625 12.359375 -3.671875 13.015625 -4.734375 C 13.671875 -5.796875 14 -7.488281 14 -9.8125 Z M 14 -9.8125 "/></g></g></g><g fill="#242a44" fill-opacity="1"><g transform="translate(171.255886, 191.668084)"><g><path d="M 13.1875 0 L 6.046875 -14.03125 L 6.046875 0 L 2.125 0 L 2.125 -19.625 L 7.3125 -19.625 L 13.96875 -6.390625 L 13.96875 -19.625 L 17.90625 -19.625 L 17.90625 0 Z M 13.1875 0 "/></g></g></g><g fill="#242a44" fill-opacity="1"><g transform="translate(191.264728, 191.668084)"><g><path d="M 10.53125 -15.96875 L 10.53125 0 L 6.53125 0 L 6.53125 -15.96875 L 0.5 -15.96875 L 0.5 -19.625 L 16.578125 -19.625 L 16.578125 -15.96875 Z M 10.53125 -15.96875 "/></g></g></g><g fill="#242a44" fill-opacity="1"><g transform="translate(208.338183, 191.668084)"><g><path d="M 13.15625 0 L 8.15625 -7.4375 L 6.125 -7.4375 L 6.125 0 L 2.125 0 L 2.125 -19.625 L 9.265625 -19.625 C 11.785156 -19.625 13.628906 -19.171875 14.796875 -18.265625 C 15.960938 -17.359375 16.546875 -15.867188 16.546875 -13.796875 C 16.546875 -12.128906 16.191406 -10.796875 15.484375 -9.796875 C 14.785156 -8.804688 13.789062 -8.175781 12.5 -7.90625 L 17.75 0 Z M 12.5 -13.625 C 12.5 -14.632812 12.242188 -15.304688 11.734375 -15.640625 C 11.234375 -15.984375 10.398438 -16.15625 9.234375 -16.15625 L 6.125 -16.15625 L 6.125 -10.921875 L 9.0625 -10.921875 C 9.957031 -10.921875 10.644531 -11.003906 11.125 -11.171875 C 11.613281 -11.347656 11.960938 -11.613281 12.171875 -11.96875 C 12.390625 -12.332031 12.5 -12.882812 12.5 -13.625 Z M 12.5 -13.625 "/></g></g></g><g fill="#242a44" fill-opacity="1"><g transform="translate(225.964618, 191.668084)"><g><path d="M 0.390625 0 L 6.875 -19.625 L 12.078125 -19.625 L 18.59375 0 L 14.5 0 L 13.1875 -3.984375 L 5.625 -3.984375 L 4.359375 0 Z M 6.765625 -7.484375 L 12.0625 -7.484375 L 9.421875 -15.59375 Z M 6.765625 -7.484375 "/></g></g></g><g fill="#242a44" fill-opacity="1"><g transform="translate(244.640457, 191.668084)"><g><path d="M 18.09375 -3.25 C 17.25 -1.988281 16.210938 -1.0625 14.984375 -0.46875 C 13.765625 0.113281 12.265625 0.40625 10.484375 0.40625 C 4.398438 0.40625 1.359375 -3 1.359375 -9.8125 C 1.359375 -13.300781 2.128906 -15.878906 3.671875 -17.546875 C 5.210938 -19.210938 7.4375 -20.046875 10.34375 -20.046875 C 12.257812 -20.046875 13.820312 -19.71875 15.03125 -19.0625 C 16.238281 -18.414062 17.160156 -17.566406 17.796875 -16.515625 L 14.6875 -14.109375 C 14.238281 -14.796875 13.820312 -15.289062 13.4375 -15.59375 C 13.0625 -15.894531 12.632812 -16.117188 12.15625 -16.265625 C 11.675781 -16.421875 11.097656 -16.5 10.421875 -16.5 C 8.816406 -16.5 7.59375 -15.984375 6.75 -14.953125 C 5.90625 -13.929688 5.484375 -12.21875 5.484375 -9.8125 C 5.484375 -7.570312 5.878906 -5.898438 6.671875 -4.796875 C 7.460938 -3.691406 8.722656 -3.140625 10.453125 -3.140625 C 11.617188 -3.140625 12.523438 -3.359375 13.171875 -3.796875 C 13.816406 -4.242188 14.40625 -4.835938 14.9375 -5.578125 Z M 18.09375 -3.25 "/></g></g></g><g fill="#242a44" fill-opacity="1"><g transform="translate(263.543211, 191.668084)"><g><path d="M 10.53125 -15.96875 L 10.53125 0 L 6.53125 0 L 6.53125 -15.96875 L 0.5 -15.96875 L 0.5 -19.625 L 16.578125 -19.625 L 16.578125 -15.96875 Z M 10.53125 -15.96875 "/></g></g></g><g fill="#242a44" fill-opacity="1"><g transform="translate(280.616666, 191.668084)"><g><path d="M 10.921875 0 L 1.453125 0 L 1.453125 -3.078125 L 4.1875 -3.078125 L 4.1875 -16.546875 L 1.453125 -16.546875 L 1.453125 -19.625 L 10.921875 -19.625 L 10.921875 -16.546875 L 8.203125 -16.546875 L 8.203125 -3.078125 L 10.921875 -3.078125 Z M 10.921875 0 "/></g></g></g><g fill="#242a44" fill-opacity="1"><g transform="translate(292.982159, 191.668084)"><g><path d="M 13.1875 0 L 6.046875 -14.03125 L 6.046875 0 L 2.125 0 L 2.125 -19.625 L 7.3125 -19.625 L 13.96875 -6.390625 L 13.96875 -19.625 L 17.90625 -19.625 L 17.90625 0 Z M 13.1875 0 "/></g></g></g><g fill="#242a44" fill-opacity="1"><g transform="translate(312.991001, 191.668084)"><g><path d="M 15.109375 -14.109375 C 14.609375 -14.921875 14 -15.519531 13.28125 -15.90625 C 12.5625 -16.300781 11.65625 -16.5 10.5625 -16.5 C 8.78125 -16.5 7.488281 -15.921875 6.6875 -14.765625 C 5.882812 -13.617188 5.484375 -11.910156 5.484375 -9.640625 C 5.484375 -7.390625 5.878906 -5.742188 6.671875 -4.703125 C 7.460938 -3.660156 8.734375 -3.140625 10.484375 -3.140625 C 11.804688 -3.140625 13.023438 -3.410156 14.140625 -3.953125 L 14.140625 -7 L 10.3125 -7 L 10.3125 -10.53125 L 18.15625 -10.53125 L 18.15625 -1.859375 C 17.25 -1.179688 16.117188 -0.632812 14.765625 -0.21875 C 13.421875 0.195312 12.035156 0.40625 10.609375 0.40625 C 7.546875 0.40625 5.238281 -0.390625 3.6875 -1.984375 C 2.132812 -3.578125 1.359375 -6.128906 1.359375 -9.640625 C 1.359375 -16.578125 4.410156 -20.046875 10.515625 -20.046875 C 12.285156 -20.046875 13.832031 -19.742188 15.15625 -19.140625 C 16.476562 -18.546875 17.488281 -17.671875 18.1875 -16.515625 Z M 15.109375 -14.109375 "/></g></g></g><g fill="#242a44" fill-opacity="1"><g transform="translate(132.997685, 226.080309)"><g><path d="M 0.390625 0 L 6.875 -19.625 L 12.078125 -19.625 L 18.59375 0 L 14.5 0 L 13.1875 -3.984375 L 5.625 -3.984375 L 4.359375 0 Z M 6.765625 -7.484375 L 12.0625 -7.484375 L 9.421875 -15.59375 Z M 6.765625 -7.484375 "/></g></g></g><g fill="#242a44" fill-opacity="1"><g transform="translate(151.957161, 226.080309)"><g><path d="M 16.234375 -5.6875 C 16.234375 -3.71875 15.585938 -2.207031 14.296875 -1.15625 C 13.015625 -0.113281 11.113281 0.40625 8.59375 0.40625 C 6.851562 0.40625 5.34375 0.117188 4.0625 -0.453125 C 2.78125 -1.023438 1.738281 -1.957031 0.9375 -3.25 L 4.015625 -5.609375 C 4.460938 -4.960938 4.890625 -4.476562 5.296875 -4.15625 C 5.710938 -3.832031 6.195312 -3.582031 6.75 -3.40625 C 7.3125 -3.226562 7.957031 -3.140625 8.6875 -3.140625 C 9.769531 -3.140625 10.613281 -3.320312 11.21875 -3.6875 C 11.832031 -4.0625 12.140625 -4.632812 12.140625 -5.40625 C 12.140625 -5.84375 12.03125 -6.207031 11.8125 -6.5 C 11.601562 -6.789062 11.285156 -7.039062 10.859375 -7.25 C 10.429688 -7.46875 9.695312 -7.710938 8.65625 -7.984375 C 7.632812 -8.253906 6.671875 -8.53125 5.765625 -8.8125 C 4.859375 -9.09375 4.078125 -9.453125 3.421875 -9.890625 C 2.765625 -10.335938 2.25 -10.894531 1.875 -11.5625 C 1.5 -12.238281 1.3125 -13.085938 1.3125 -14.109375 C 1.3125 -15.972656 1.9375 -17.425781 3.1875 -18.46875 C 4.445312 -19.519531 6.25 -20.046875 8.59375 -20.046875 C 11.988281 -20.046875 14.390625 -18.878906 15.796875 -16.546875 L 12.75 -14.171875 C 12.207031 -15.003906 11.597656 -15.597656 10.921875 -15.953125 C 10.253906 -16.316406 9.457031 -16.5 8.53125 -16.5 C 7.601562 -16.5 6.847656 -16.328125 6.265625 -15.984375 C 5.691406 -15.648438 5.40625 -15.125 5.40625 -14.40625 C 5.40625 -13.769531 5.707031 -13.285156 6.3125 -12.953125 C 6.914062 -12.617188 7.96875 -12.28125 9.46875 -11.9375 C 10.300781 -11.71875 11.125 -11.484375 11.9375 -11.234375 C 12.75 -10.984375 13.472656 -10.632812 14.109375 -10.1875 C 14.753906 -9.75 15.269531 -9.171875 15.65625 -8.453125 C 16.039062 -7.734375 16.234375 -6.8125 16.234375 -5.6875 Z M 16.234375 -5.6875 "/></g></g></g><g fill="#242a44" fill-opacity="1"><g transform="translate(169.385132, 226.080309)"><g><path d="M 16.234375 -5.6875 C 16.234375 -3.71875 15.585938 -2.207031 14.296875 -1.15625 C 13.015625 -0.113281 11.113281 0.40625 8.59375 0.40625 C 6.851562 0.40625 5.34375 0.117188 4.0625 -0.453125 C 2.78125 -1.023438 1.738281 -1.957031 0.9375 -3.25 L 4.015625 -5.609375 C 4.460938 -4.960938 4.890625 -4.476562 5.296875 -4.15625 C 5.710938 -3.832031 6.195312 -3.582031 6.75 -3.40625 C 7.3125 -3.226562 7.957031 -3.140625 8.6875 -3.140625 C 9.769531 -3.140625 10.613281 -3.320312 11.21875 -3.6875 C 11.832031 -4.0625 12.140625 -4.632812 12.140625 -5.40625 C 12.140625 -5.84375 12.03125 -6.207031 11.8125 -6.5 C 11.601562 -6.789062 11.285156 -7.039062 10.859375 -7.25 C 10.429688 -7.46875 9.695312 -7.710938 8.65625 -7.984375 C 7.632812 -8.253906 6.671875 -8.53125 5.765625 -8.8125 C 4.859375 -9.09375 4.078125 -9.453125 3.421875 -9.890625 C 2.765625 -10.335938 2.25 -10.894531 1.875 -11.5625 C 1.5 -12.238281 1.3125 -13.085938 1.3125 -14.109375 C 1.3125 -15.972656 1.9375 -17.425781 3.1875 -18.46875 C 4.445312 -19.519531 6.25 -20.046875 8.59375 -20.046875 C 11.988281 -20.046875 14.390625 -18.878906 15.796875 -16.546875 L 12.75 -14.171875 C 12.207031 -15.003906 11.597656 -15.597656 10.921875 -15.953125 C 10.253906 -16.316406 9.457031 -16.5 8.53125 -16.5 C 7.601562 -16.5 6.847656 -16.328125 6.265625 -15.984375 C 5.691406 -15.648438 5.40625 -15.125 5.40625 -14.40625 C 5.40625 -13.769531 5.707031 -13.285156 6.3125 -12.953125 C 6.914062 -12.617188 7.96875 -12.28125 9.46875 -11.9375 C 10.300781 -11.71875 11.125 -11.484375 11.9375 -11.234375 C 12.75 -10.984375 13.472656 -10.632812 14.109375 -10.1875 C 14.753906 -9.75 15.269531 -9.171875 15.65625 -8.453125 C 16.039062 -7.734375 16.234375 -6.8125 16.234375 -5.6875 Z M 16.234375 -5.6875 "/></g></g></g><g fill="#242a44" fill-opacity="1"><g transform="translate(186.813102, 226.080309)"><g><path d="M 18.125 -9.8125 C 18.125 -6.394531 17.398438 -3.835938 15.953125 -2.140625 C 14.515625 -0.441406 12.421875 0.40625 9.671875 0.40625 C 6.765625 0.40625 4.628906 -0.488281 3.265625 -2.28125 C 1.898438 -4.070312 1.21875 -6.582031 1.21875 -9.8125 C 1.21875 -13.0625 1.898438 -15.578125 3.265625 -17.359375 C 4.628906 -19.148438 6.765625 -20.046875 9.671875 -20.046875 C 12.597656 -20.046875 14.738281 -19.148438 16.09375 -17.359375 C 17.445312 -15.578125 18.125 -13.0625 18.125 -9.8125 Z M 14 -9.8125 C 14 -12.132812 13.671875 -13.828125 13.015625 -14.890625 C 12.359375 -15.960938 11.242188 -16.5 9.671875 -16.5 C 8.097656 -16.5 6.984375 -15.960938 6.328125 -14.890625 C 5.671875 -13.828125 5.34375 -12.132812 5.34375 -9.8125 C 5.34375 -7.488281 5.675781 -5.796875 6.34375 -4.734375 C 7.007812 -3.671875 8.117188 -3.140625 9.671875 -3.140625 C 11.242188 -3.140625 12.359375 -3.671875 13.015625 -4.734375 C 13.671875 -5.796875 14 -7.488281 14 -9.8125 Z M 14 -9.8125 "/></g></g></g><g fill="#242a44" fill-opacity="1"><g transform="translate(206.155455, 226.080309)"><g><path d="M 18.09375 -3.25 C 17.25 -1.988281 16.210938 -1.0625 14.984375 -0.46875 C 13.765625 0.113281 12.265625 0.40625 10.484375 0.40625 C 4.398438 0.40625 1.359375 -3 1.359375 -9.8125 C 1.359375 -13.300781 2.128906 -15.878906 3.671875 -17.546875 C 5.210938 -19.210938 7.4375 -20.046875 10.34375 -20.046875 C 12.257812 -20.046875 13.820312 -19.71875 15.03125 -19.0625 C 16.238281 -18.414062 17.160156 -17.566406 17.796875 -16.515625 L 14.6875 -14.109375 C 14.238281 -14.796875 13.820312 -15.289062 13.4375 -15.59375 C 13.0625 -15.894531 12.632812 -16.117188 12.15625 -16.265625 C 11.675781 -16.421875 11.097656 -16.5 10.421875 -16.5 C 8.816406 -16.5 7.59375 -15.984375 6.75 -14.953125 C 5.90625 -13.929688 5.484375 -12.21875 5.484375 -9.8125 C 5.484375 -7.570312 5.878906 -5.898438 6.671875 -4.796875 C 7.460938 -3.691406 8.722656 -3.140625 10.453125 -3.140625 C 11.617188 -3.140625 12.523438 -3.359375 13.171875 -3.796875 C 13.816406 -4.242188 14.40625 -4.835938 14.9375 -5.578125 Z M 18.09375 -3.25 "/></g></g></g><g fill="#242a44" fill-opacity="1"><g transform="translate(225.058209, 226.080309)"><g><path d="M 10.921875 0 L 1.453125 0 L 1.453125 -3.078125 L 4.1875 -3.078125 L 4.1875 -16.546875 L 1.453125 -16.546875 L 1.453125 -19.625 L 10.921875 -19.625 L 10.921875 -16.546875 L 8.203125 -16.546875 L 8.203125 -3.078125 L 10.921875 -3.078125 Z M 10.921875 0 "/></g></g></g><g fill="#242a44" fill-opacity="1"><g transform="translate(237.423702, 226.080309)"><g><path d="M 0.390625 0 L 6.875 -19.625 L 12.078125 -19.625 L 18.59375 0 L 14.5 0 L 13.1875 -3.984375 L 5.625 -3.984375 L 4.359375 0 Z M 6.765625 -7.484375 L 12.0625 -7.484375 L 9.421875 -15.59375 Z M 6.765625 -7.484375 "/></g></g></g><g fill="#242a44" fill-opacity="1"><g transform="translate(254.057302, 226.080309)"><g><path d="M 10.53125 -15.96875 L 10.53125 0 L 6.53125 0 L 6.53125 -15.96875 L 0.5 -15.96875 L 0.5 -19.625 L 16.578125 -19.625 L 16.578125 -15.96875 Z M 10.53125 -15.96875 "/></g></g></g><g fill="#242a44" fill-opacity="1"><g transform="translate(271.130757, 226.080309)"><g><path d="M 2.125 0 L 2.125 -19.625 L 14.875 -19.625 L 14.875 -16.09375 L 6.125 -16.09375 L 6.125 -11.90625 L 13.5 -11.90625 L 13.5 -8.375 L 6.125 -8.375 L 6.125 -3.65625 L 14.875 -3.65625 L 14.875 0 Z M 2.125 0 "/></g></g></g><g fill="#242a44" fill-opacity="1"><g transform="translate(287.424279, 226.080309)"><g><path d="M 16.234375 -5.6875 C 16.234375 -3.71875 15.585938 -2.207031 14.296875 -1.15625 C 13.015625 -0.113281 11.113281 0.40625 8.59375 0.40625 C 6.851562 0.40625 5.34375 0.117188 4.0625 -0.453125 C 2.78125 -1.023438 1.738281 -1.957031 0.9375 -3.25 L 4.015625 -5.609375 C 4.460938 -4.960938 4.890625 -4.476562 5.296875 -4.15625 C 5.710938 -3.832031 6.195312 -3.582031 6.75 -3.40625 C 7.3125 -3.226562 7.957031 -3.140625 8.6875 -3.140625 C 9.769531 -3.140625 10.613281 -3.320312 11.21875 -3.6875 C 11.832031 -4.0625 12.140625 -4.632812 12.140625 -5.40625 C 12.140625 -5.84375 12.03125 -6.207031 11.8125 -6.5 C 11.601562 -6.789062 11.285156 -7.039062 10.859375 -7.25 C 10.429688 -7.46875 9.695312 -7.710938 8.65625 -7.984375 C 7.632812 -8.253906 6.671875 -8.53125 5.765625 -8.8125 C 4.859375 -9.09375 4.078125 -9.453125 3.421875 -9.890625 C 2.765625 -10.335938 2.25 -10.894531 1.875 -11.5625 C 1.5 -12.238281 1.3125 -13.085938 1.3125 -14.109375 C 1.3125 -15.972656 1.9375 -17.425781 3.1875 -18.46875 C 4.445312 -19.519531 6.25 -20.046875 8.59375 -20.046875 C 11.988281 -20.046875 14.390625 -18.878906 15.796875 -16.546875 L 12.75 -14.171875 C 12.207031 -15.003906 11.597656 -15.597656 10.921875 -15.953125 C 10.253906 -16.316406 9.457031 -16.5 8.53125 -16.5 C 7.601562 -16.5 6.847656 -16.328125 6.265625 -15.984375 C 5.691406 -15.648438 5.40625 -15.125 5.40625 -14.40625 C 5.40625 -13.769531 5.707031 -13.285156 6.3125 -12.953125 C 6.914062 -12.617188 7.96875 -12.28125 9.46875 -11.9375 C 10.300781 -11.71875 11.125 -11.484375 11.9375 -11.234375 C 12.75 -10.984375 13.472656 -10.632812 14.109375 -10.1875 C 14.753906 -9.75 15.269531 -9.171875 15.65625 -8.453125 C 16.039062 -7.734375 16.234375 -6.8125 16.234375 -5.6875 Z M 16.234375 -5.6875 "/></g></g></g><g fill="#242a44" fill-opacity="1"><g transform="translate(304.85225, 226.080309)"><g/></g></g><g fill="#242a44" fill-opacity="1"><g transform="translate(311.82911, 226.080309)"><g><path d="M 2.125 0 L 2.125 -19.625 L 6.125 -19.625 L 6.125 -3.65625 L 14.375 -3.65625 L 14.375 0 Z M 2.125 0 "/></g></g></g><g fill="#242a44" fill-opacity="1"><g transform="translate(326.548584, 226.080309)"><g><path d="M 2.125 0 L 2.125 -19.625 L 6.125 -19.625 L 6.125 -3.65625 L 14.375 -3.65625 L 14.375 0 Z M 2.125 0 "/></g></g></g><g fill="#242a44" fill-opacity="1"><g transform="translate(340.984421, 226.080309)"><g><path d="M 18.09375 -3.25 C 17.25 -1.988281 16.210938 -1.0625 14.984375 -0.46875 C 13.765625 0.113281 12.265625 0.40625 10.484375 0.40625 C 4.398438 0.40625 1.359375 -3 1.359375 -9.8125 C 1.359375 -13.300781 2.128906 -15.878906 3.671875 -17.546875 C 5.210938 -19.210938 7.4375 -20.046875 10.34375 -20.046875 C 12.257812 -20.046875 13.820312 -19.71875 15.03125 -19.0625 C 16.238281 -18.414062 17.160156 -17.566406 17.796875 -16.515625 L 14.6875 -14.109375 C 14.238281 -14.796875 13.820312 -15.289062 13.4375 -15.59375 C 13.0625 -15.894531 12.632812 -16.117188 12.15625 -16.265625 C 11.675781 -16.421875 11.097656 -16.5 10.421875 -16.5 C 8.816406 -16.5 7.59375 -15.984375 6.75 -14.953125 C 5.90625 -13.929688 5.484375 -12.21875 5.484375 -9.8125 C 5.484375 -7.570312 5.878906 -5.898438 6.671875 -4.796875 C 7.460938 -3.691406 8.722656 -3.140625 10.453125 -3.140625 C 11.617188 -3.140625 12.523438 -3.359375 13.171875 -3.796875 C 13.816406 -4.242188 14.40625 -4.835938 14.9375 -5.578125 Z M 18.09375 -3.25 "/></g></g></g><g fill="#242a44" fill-opacity="1"><g transform="translate(359.887175, 226.080309)"><g><path d="M 6.453125 -2.0625 C 6.453125 -1.25 6.265625 -0.664062 5.890625 -0.3125 C 5.523438 0.03125 4.9375 0.203125 4.125 0.203125 C 3.238281 0.203125 2.632812 0.0078125 2.3125 -0.375 C 1.988281 -0.769531 1.828125 -1.332031 1.828125 -2.0625 C 1.828125 -2.832031 1.992188 -3.398438 2.328125 -3.765625 C 2.671875 -4.140625 3.269531 -4.328125 4.125 -4.328125 C 5 -4.328125 5.601562 -4.144531 5.9375 -3.78125 C 6.28125 -3.425781 6.453125 -2.851562 6.453125 -2.0625 Z M 6.453125 -2.0625 "/></g></g></g><path stroke-linecap="butt" transform="matrix(0.75, 0, 0, 0.75, 133.473262, 232.764316)" fill="none" stroke-linejoin="miter" d="M -0.000807847 1.501746 L 312.983588 1.501746 " stroke="#000000" stroke-width="3" stroke-opacity="1" stroke-miterlimit="4"/></svg>